<?xml version="1.0" encoding="UTF-8" standalone="no"?>
<!-- Created with Inkscape (http://www.inkscape.org/) -->

<svg
   width="135.75661mm"
   height="32.365013mm"
   viewBox="0 0 135.75661 32.365013"
   version="1.1"
   id="svg1"
   xml:space="preserve"
   xmlns="http://www.w3.org/2000/svg"
   xmlns:svg="http://www.w3.org/2000/svg"><defs
     id="defs1" /><g
     id="layer1"
     transform="translate(-41.565801,-38.391578)"><g
       fill="none"
       stroke="currentColor"
       stroke-linecap="round"
       stroke-linejoin="round"
       stroke-miterlimit="10"
       stroke-width="1"
       id="g2"
       transform="matrix(1.4071829,0,0,1.4071829,41.565707,36.984298)"
       style="stroke-width:0.99987;stroke-dasharray:none"><path
         d="M 11.5,1.5 3.722,4.722 0.5,12.5 3.722,20.278 11.5,23.5 19.278,20.278 22.5,12.5 19.278,4.722 Z"
         id="path1"
         style="stroke-width:0.99987;stroke-dasharray:none" /><path
         d="m 8.492,17.5 -1.87,-6.121 4.89,-3.564 4.892,3.564 -1.868,6.12 z M 14.637,2.8 11.513,4.134 8.376,2.794 M 3.244,5.875 3.6,9.902 0.772,13.157 m 2.166,5.229 3.685,0.85 1.783,2.982 m 6.225,-0.015 1.773,-2.97 3.656,-0.842 M 22.236,13.136 19.424,9.899 19.777,5.905 M 11.513,4.134 v 3.68 m 4.891,3.708 3.02,-1.623 m -4.888,7.601 1.868,1.733 M 8.492,17.5 6.623,19.235 M 3.6,9.902 6.622,11.379"
         id="path2"
         style="stroke-width:0.99987;stroke-dasharray:none" /></g><path
       style="font-weight:600;font-size:74.6667px;font-family:Poppins;-inkscape-font-specification:'Poppins Semi-Bold';white-space:pre;stroke-width:5.3178"
       d="m 281.50829,238.72672 q -5.97333,0 -10.752,-2.61334 -4.77867,-2.688 -7.54134,-7.54133 -2.688,-4.85334 -2.688,-11.20001 0,-6.34667 2.76267,-11.2 2.83733,-4.85334 7.69067,-7.46667 4.85333,-2.688 10.82667,-2.688 5.97334,0 10.82667,2.688 4.85334,2.61333 7.616,7.46667 2.83734,4.85333 2.83734,11.2 0,6.34667 -2.912,11.20001 -2.83734,4.85333 -7.76534,7.54133 -4.85333,2.61334 -10.90134,2.61334 z m 0,-9.10934 q 2.83734,0 5.30134,-1.344 2.53867,-1.41867 4.032,-4.18133 1.49333,-2.76267 1.49333,-6.72001 0,-5.89867 -3.136,-9.03467 -3.06133,-3.21067 -7.54133,-3.21067 -4.48001,0 -7.54134,3.21067 -2.98667,3.136 -2.98667,9.03467 0,5.89867 2.912,9.10934 2.98667,3.136 7.46667,3.136 z m 39.72273,-26.95468 q 2.016,-2.83733 5.52533,-4.704 3.584,-1.94133 8.13867,-1.94133 5.30134,0 9.55734,2.61333 4.33067,2.61333 6.79467,7.46667 2.53867,4.77867 2.53867,11.12534 0,6.34667 -2.53867,11.27467 -2.464,4.85334 -6.79467,7.54134 -4.256,2.688 -9.55734,2.688 -4.55467,0 -8.064,-1.86667 -3.43467,-1.86667 -5.6,-4.704 v 25.61068 h -10.45334 v -61.07736 h 10.45334 z m 21.87734,14.56001 q 0,-3.73334 -1.568,-6.42134 -1.49334,-2.76267 -4.032,-4.18133 -2.464,-1.41867 -5.37601,-1.41867 -2.83733,0 -5.376,1.49333 -2.464,1.41867 -4.032,4.18134 -1.49333,2.76267 -1.49333,6.496 0,3.73334 1.49333,6.49601 1.568,2.76266 4.032,4.256 2.53867,1.41866 5.376,1.41866 2.91201,0 5.37601,-1.49333 2.53866,-1.49333 4.032,-4.256 1.568,-2.76267 1.568,-6.57067 z m 56.74666,-0.74667 q 0,2.24 -0.29867,4.032 h -30.24001 q 0.37333,4.48001 3.136,7.01867 2.76267,2.53867 6.79467,2.53867 5.824,0 8.288,-5.00267 h 11.27467 q -1.792,5.97334 -6.86933,9.85601 -5.07734,3.808 -12.46934,3.808 -5.97334,0 -10.75201,-2.61334 -4.704,-2.688 -7.392,-7.54133 -2.61333,-4.85334 -2.61333,-11.20001 0,-6.42133 2.61333,-11.27467 2.61333,-4.85334 7.31734,-7.46667 4.704,-2.61333 10.82667,-2.61333 5.89867,0 10.528,2.53866 4.70401,2.53867 7.24267,7.24267 2.61334,4.62934 2.61334,10.67734 z m -10.82667,-2.98667 q -0.0747,-4.032 -2.912,-6.42133 -2.83734,-2.464 -6.94401,-2.464 -3.88267,0 -6.57067,2.38933 -2.61333,2.31467 -3.21067,6.496 z m 41.36539,-17.39734 q 7.392,0 11.94667,4.704 4.55467,4.62934 4.55467,12.99201 v 24.26668 h -10.45334 v -22.84801 q 0,-4.928 -2.464,-7.54134 -2.464,-2.688 -6.72,-2.688 -4.33067,0 -6.86934,2.688 -2.464,2.61334 -2.464,7.54134 v 22.84801 h -10.45334 v -41.36535 h 10.45334 v 5.152 q 2.09067,-2.688 5.30134,-4.18134 3.28533,-1.568 7.168,-1.568 z m 61.89864,-10.15467 v 8.43734 h -13.88801 v 43.68002 H 467.95103 V 194.3747 h -13.888 v -8.43734 z m 12.91731,5.824 q -2.76267,0 -4.62934,-1.71733 -1.792,-1.792 -1.792,-4.40534 0,-2.61333 1.792,-4.33066 1.86667,-1.79201 4.62934,-1.79201 2.76266,0 4.55466,1.79201 1.86667,1.71733 1.86667,4.33066 0,2.61334 -1.86667,4.40534 -1.792,1.71733 -4.55466,1.71733 z m 5.152,4.92801 v 41.36535 h -10.45334 v -41.36535 z m 20.75735,5.97333 q 2.016,-2.83733 5.52534,-4.704 3.584,-1.94133 8.13867,-1.94133 5.30134,0 9.55734,2.61333 4.33067,2.61333 6.79467,7.46667 2.53867,4.77867 2.53867,11.12534 0,6.34667 -2.53867,11.27467 -2.464,4.85334 -6.79467,7.54134 -4.256,2.688 -9.55734,2.688 -4.55467,0 -8.064,-1.86667 -3.43467,-1.86667 -5.60001,-4.704 v 25.61068 H 520.6657 v -61.07736 h 10.45334 z m 21.87735,14.56001 q 0,-3.73334 -1.568,-6.42134 -1.49334,-2.76267 -4.03201,-4.18133 -2.464,-1.41867 -5.376,-1.41867 -2.83733,0 -5.376,1.49333 -2.464,1.41867 -4.032,4.18134 -1.49334,2.76267 -1.49334,6.496 0,3.73334 1.49334,6.49601 1.568,2.76266 4.032,4.256 2.53867,1.41866 5.376,1.41866 2.912,0 5.376,-1.49333 2.53867,-1.49333 4.03201,-4.256 1.568,-2.76267 1.568,-6.57067 z m 28.74662,-14.56001 q 2.016,-2.83733 5.52533,-4.704 3.584,-1.94133 8.13867,-1.94133 5.30134,0 9.55734,2.61333 4.33067,2.61333 6.79467,7.46667 2.53867,4.77867 2.53867,11.12534 0,6.34667 -2.53867,11.27467 -2.464,4.85334 -6.79467,7.54134 -4.256,2.688 -9.55734,2.688 -4.55467,0 -8.064,-1.86667 -3.43467,-1.86667 -5.6,-4.704 v 25.61068 h -10.45334 v -61.07736 h 10.45334 z m 21.87734,14.56001 q 0,-3.73334 -1.568,-6.42134 -1.49334,-2.76267 -4.032,-4.18133 -2.464,-1.41867 -5.37601,-1.41867 -2.83733,0 -5.376,1.49333 -2.464,1.41867 -4.032,4.18134 -1.49333,2.76267 -1.49333,6.496 0,3.73334 1.49333,6.49601 1.568,2.76266 4.032,4.256 2.53867,1.41866 5.376,1.41866 2.91201,0 5.37601,-1.49333 2.53866,-1.49333 4.032,-4.256 1.568,-2.76267 1.568,-6.57067 z"
       id="text1"
       transform="matrix(0.26458333,0,0,0.26458333,14.789487,-2.7303668)"
       aria-label="openTipp" /></g></svg>
